# This file uses centimeters as units for non-parametric coordinates.

mtllib HexagonPlane.mtl
g default
v -1.754321 0.500000 0.500000
v -0.754321 0.500000 0.500000
v -1.754321 0.500000 -0.500000
v -0.754321 0.500000 -0.500000
v -1.254321 0.500000 -0.762120
v -1.254321 0.500000 0.762120
v -1.977122 0.500000 0.000000
v -0.531520 0.500000 0.000000
v -1.254321 0.500000 0.000000
vt 0.194376 0.777306
vt 0.036078 0.472282
vt 0.500000 0.474204
vt 0.498176 0.914192
vt 0.196898 0.168580
vt 0.501823 0.034216
vt 0.963922 0.476127
vt 0.805624 0.171102
vt 0.803102 0.779829
vn -0.000000 1.000000 0.000000
vn 0.000000 1.000000 0.000000
vn 0.000000 1.000000 0.000000
vn -0.000000 1.000000 0.000000
vn 0.000000 1.000000 0.000000
vn 0.000000 1.000000 0.000000
vn 0.000000 1.000000 -0.000000
vn 0.000000 1.000000 -0.000000
vn -0.000000 1.000000 -0.000000
s 1
g pCube1
usemtl initialShadingGroup
f 1/1/1 6/2/2 9/3/3 7/4/4
f 9/3/3 6/2/2 2/5/5 8/6/6
f 5/7/7 9/3/3 8/6/6 4/8/8
f 7/4/4 9/3/3 5/7/7 3/9/9
