# This file uses centimeters as units for non-parametric coordinates.

mtllib Smallside.mtl
g default
v -1.337934 0.000000 0.997987
v 1.337934 0.000000 0.997987
v -0.814601 0.000000 0.007446
v 0.814601 0.000000 0.007446
v -0.389017 0.000000 -0.789998
v 0.389017 0.000000 -0.789998
v -0.033442 0.000000 -1.523077
v 0.033442 0.000000 -1.523077
vt 0.000000 0.000000
vt 1.000000 0.000000
vt 0.000000 0.333333
vt 1.000000 0.333333
vt 0.000000 0.666667
vt 1.000000 0.666667
vt 0.000000 1.000000
vt 1.000000 1.000000
vn 0.000000 1.000000 0.000000
vn 0.000000 1.000000 0.000000
vn 0.000000 1.000000 0.000000
vn 0.000000 1.000000 0.000000
vn 0.000000 1.000000 0.000000
vn 0.000000 1.000000 0.000000
vn 0.000000 1.000000 0.000000
vn 0.000000 1.000000 0.000000
s 1
g pPlane1
usemtl initialShadingGroup
f 1/1/1 2/2/2 4/4/3 3/3/4
f 3/3/4 4/4/3 6/6/5 5/5/6
f 5/5/6 6/6/5 8/8/7 7/7/8
